<svg width="79" height="50" viewBox="0 0 79 50" fill="none" xmlns="http://www.w3.org/2000/svg">
<g clip-path="url(#clip0_1337_12216)">
<path d="M14.2793 47.8861L15.3606 48.8813L16.4096 47.8861L15.3606 46.8604L14.2793 47.8861Z" fill="white"/>
<path d="M13.0677 46.8604L11.9863 47.8861L13.0677 48.8813L14.1166 47.8861L13.0677 46.8604Z" fill="white"/>
<path d="M13.2969 49.1304L14.2145 50.0002L15.1321 49.1304L14.2145 48.2285L13.2969 49.1304Z" fill="white"/>
<path d="M6.94053 32.4697C6.85298 32.4697 6.64006 32.9724 6.30177 33.9778C5.96131 34.9826 5.69544 35.8781 5.49116 36.6659C5.20924 37.7312 5.06649 38.8281 5.06641 39.9295C5.06641 42.1053 5.73218 43.6385 7.06374 44.5292L10.2754 34.4585L6.94053 32.4697Z" fill="white"/>
<path d="M24.502 47.8555L25.5833 48.8813L26.6322 47.8555L25.5833 46.8604L24.502 47.8555Z" fill="white"/>
<path d="M26.7969 47.8555L27.8782 48.8813L28.9271 47.8555L27.8782 46.8604L26.7969 47.8555Z" fill="white"/>
<path d="M43.9676 29.9196L44.8852 24.6978L39.0488 26.9984C37.9129 27.455 37.0607 28.1388 36.4922 29.0498C38.5252 29.4646 40.2291 30.045 41.6039 30.791L43.9676 29.9196Z" fill="white"/>
<path d="M39.1825 36.137H44.0964C44.0041 35.1194 43.6429 34.1439 43.0491 33.309C42.5058 32.5654 41.8137 31.9409 41.0161 31.4746C39.771 30.7704 38.1325 30.2522 36.1006 29.9199L34.8555 34.1482C35.5449 34.3657 36.2183 34.6305 36.8706 34.9408C37.6685 35.2855 38.441 35.6851 39.1825 36.137Z" fill="white"/>
<path d="M44.1628 37.008H30.8267C30.7824 35.5161 30.5965 34.2519 30.269 33.2154L26.7299 35.2363L27.1563 37.0048H24.0436C23.7106 37.01 23.3842 36.9122 23.1098 36.7251C22.8354 36.5373 22.6331 36.2631 22.5359 35.9469L21.2259 32.0386L17.9495 34.4019L18.8055 37.008H10.4125L7.85742 45.1511C8.74564 45.6864 9.76707 45.9649 10.8064 45.955H17.0319C17.8446 45.9291 18.6427 45.7341 19.3745 45.3826C20.2392 45 20.8336 44.6115 21.1578 44.217C21.4163 44.7294 21.8081 45.164 22.2927 45.4759C22.794 45.8003 23.3818 45.9683 23.9804 45.9582H25.1914C26.8742 45.9582 28.1307 45.3569 28.9607 44.1543C29.1906 44.7015 29.5875 45.1636 30.0956 45.4759C30.6101 45.7977 31.2074 45.9652 31.8157 45.9582H41.6127C42.3919 44.6104 43.0079 43.176 43.4479 41.6849C43.9155 40.169 44.1564 38.5933 44.1628 37.008Z" fill="white"/>
<path d="M66.1822 36.1367C65.9536 34.4457 65.561 32.7804 65.01 31.1641L61.2812 33.9615L61.9297 36.1367H66.1822Z" fill="white"/>
<path d="M60.3483 37.008C60.1443 37.0085 59.9422 36.9688 59.7538 36.8913C59.5654 36.8137 59.3944 36.6998 59.2508 36.5562C59.1023 36.4257 58.9832 36.2656 58.9013 36.0864C58.8195 35.9071 58.7767 35.7128 58.7757 35.516V34.1478H55.6306V35.516C55.6302 35.7113 55.5893 35.9045 55.5103 36.0834C55.4314 36.2624 55.3162 36.4233 55.1718 36.5562C55.0267 36.7024 54.8532 36.8179 54.6617 36.8956C54.4702 36.9732 54.2649 37.0115 54.058 37.008H51.9277L52.8778 34.1478L49.6661 33.4019L48.8799 35.8263C48.7707 36.1571 48.5661 36.4489 48.2914 36.6655C48.0142 36.891 47.6657 37.0123 47.3073 37.008H45.0797L45.0473 38.0948C44.9855 39.205 44.8266 40.3077 44.5723 41.3906C44.3034 42.6871 43.8336 43.9344 43.1797 45.0884C43.8552 45.6682 44.5761 45.9587 45.3424 45.9597H46.5875C47.2069 45.9577 47.8136 45.7851 48.34 45.4613C48.844 45.1855 49.2499 44.7621 49.5024 44.2491C49.9041 44.8608 50.4969 45.325 51.1901 45.5707C51.8107 45.8121 52.4691 45.9438 53.1355 45.9597C54.8648 45.9597 56.2629 45.3381 57.3296 44.0948C57.8459 44.6851 58.4898 45.1522 59.2135 45.4613C59.9718 45.7949 60.793 45.9648 61.6226 45.9597C62.7574 45.9597 63.6912 45.6334 64.424 44.9806C65.1579 44.3239 65.7057 43.488 66.0128 42.5562C66.3339 41.6201 66.4982 40.6382 66.4992 39.6494C66.4995 38.7655 66.435 37.8827 66.3063 37.008H60.3483Z" fill="white"/>
<path d="M68.3795 45.9596H70.6087L72.2461 43.2232L72.4423 37.0078H67.9531L68.3795 45.9596Z" fill="white"/>
<path d="M72.1632 29.1899C71.9564 28.168 71.6089 27.1791 71.1305 26.251L66.6738 29.7317C66.9138 30.1047 67.1488 30.8249 67.3791 31.8925C67.5945 32.8711 67.7424 33.8633 67.8216 34.8619L67.9189 36.1352H72.4405L72.5069 32.841C72.5332 31.6149 72.4179 30.3899 72.1632 29.1899Z" fill="white"/>
<path d="M8.26742 24.5098C7.18661 23.0275 6.6462 21.1572 6.6462 18.8989C6.63365 18.5227 6.65372 18.1462 6.70619 17.7735L7.84104 10.7478H10.495V16.3442C10.4845 16.7521 10.6352 17.1479 10.9149 17.4471C11.0424 17.5907 11.1996 17.7052 11.3759 17.7829C11.5522 17.8606 11.7433 17.8996 11.9362 17.8973H16.1984L17.5197 25.5436C16.3934 26.3239 15.0513 26.7394 13.6774 26.7333C11.1516 26.7333 9.34822 25.9921 8.26742 24.5098ZM12.4404 13.8008L13.4002 12.8072L14.3615 13.8008L13.4002 14.796L12.4404 13.8008ZM19.0809 7.55322C19.7538 9.22697 20.3054 10.9462 20.7313 12.6979C21.058 14.0788 21.2277 15.4917 21.2371 16.9101V17.1577C21.2537 18.6694 20.9905 20.1712 20.4605 21.5886C20.0028 22.8497 19.2641 23.9922 18.2995 24.931L15.5434 10.7252L19.0809 7.55322Z" fill="white"/>
<path d="M21.5879 5.64148C21.3772 4.56967 21.161 3.84941 20.9395 3.48071L25.0217 0C25.4634 0.935313 25.7822 1.92303 25.9701 2.93891C26.2044 4.14209 26.3098 5.36647 26.2846 6.59164L26.2246 9.88585H22.0824L21.9932 8.61093C21.9212 7.61365 21.7859 6.62186 21.5879 5.64148ZM26.2246 10.754L26.0446 16.9711L24.5434 19.7042H22.5023L22.1132 10.7508L26.2246 10.754Z" fill="white"/>
<path d="M27.006 18.8055C28.0058 17.4797 28.7083 16.2053 29.1136 14.9824L28.2722 10.7541L31.1239 8.70264L31.7254 10.4711C32.0609 11.4748 32.287 12.5113 32.3998 13.5628C32.5155 14.519 32.5778 15.4808 32.5862 16.4438C32.5862 19.1994 32.0264 22.007 30.9067 24.8666H24.4218L23.582 22.4422C24.8524 21.3561 26.0004 20.1368 27.006 18.8055ZM35.0797 10.7541C35.4201 10.7541 35.7054 11.1892 35.9357 12.0595C36.185 13.0982 36.3011 14.164 36.281 15.2316C36.301 16.2986 36.185 17.3638 35.9357 18.402C35.7054 19.2723 35.4201 19.7075 35.0797 19.7075H33.1893C33.3376 18.6568 33.4178 17.5979 33.4293 16.537C33.4041 14.5838 33.1423 12.6406 32.6495 10.7493L35.0797 10.7541Z" fill="white"/>
<path d="M34.2273 18.4018C33.9791 17.3635 33.8642 16.2983 33.8853 15.2314C33.8652 14.1639 33.9812 13.0981 34.2306 12.0594C34.4608 11.1901 34.7456 10.755 35.085 10.7539H41.5698C41.9092 10.7539 42.194 11.1891 42.4242 12.0594C42.6736 13.0981 42.7896 14.1639 42.7695 15.2314C42.7895 16.2984 42.6735 17.3636 42.4242 18.4018C42.194 19.2721 41.9092 19.7073 41.5698 19.7073H35.085C34.7423 19.7073 34.4565 19.2721 34.2273 18.4018Z" fill="white"/>
<path d="M40.7102 18.4018C40.4626 17.3634 40.3482 16.2982 40.3698 15.2314C40.3497 14.1639 40.4657 13.0981 40.7151 12.0594C40.9453 11.1901 41.2301 10.755 41.5695 10.7539H48.0543C48.3926 10.7539 48.6774 11.1891 48.9087 12.0594C49.1581 13.0981 49.2741 14.1639 49.254 15.2314C49.274 16.2984 49.158 17.3636 48.9087 18.4018C48.6785 19.2721 48.3937 19.7073 48.0543 19.7073H41.5695C41.2268 19.7073 40.9404 19.2721 40.7102 18.4018Z" fill="white"/>
<path d="M47.1911 18.4018C46.944 17.3634 46.8302 16.2981 46.8523 15.2314C46.8322 14.1639 46.9482 13.0981 47.1976 12.0594C47.4278 11.1901 47.7132 10.755 48.0536 10.7539H54.5385C54.8789 10.7539 55.1626 11.1896 55.3945 12.0594C55.6424 13.0983 55.7579 14.164 55.7382 15.2314C55.7578 16.2983 55.6424 17.3634 55.3945 18.4018C55.1626 19.2716 54.8789 19.7073 54.5385 19.7073H48.0536C47.7089 19.7073 47.4214 19.2721 47.1911 18.4018Z" fill="white"/>
<path d="M53.676 18.4018C53.4294 17.3633 53.3161 16.2981 53.3388 15.2314C53.3187 14.1639 53.4347 13.0981 53.6841 12.0594C53.9143 11.1901 54.1996 10.755 54.5401 10.7539H61.0249C61.3654 10.7539 61.6507 11.1891 61.8809 12.0594C62.1295 13.0982 62.2455 14.1639 62.2263 15.2314C62.2455 16.2984 62.1294 17.3635 61.8809 18.4018C61.6507 19.2721 61.3654 19.7073 61.0249 19.7073H54.5401C54.1942 19.7073 53.9062 19.2721 53.676 18.4018Z" fill="white"/>
<path d="M60.1581 18.4019C59.9088 17.3638 59.7928 16.2985 59.8128 15.2315C59.7927 14.164 59.9087 13.0982 60.1581 12.0595C60.3883 11.1903 60.6736 10.7551 61.0141 10.754H67.0774L67.1374 11.9984C67.1275 13.2779 66.9609 14.5514 66.6413 15.791C66.3027 17.1414 65.8252 18.4537 65.2163 19.7074H61.0141C60.6736 19.7074 60.3883 19.2723 60.1581 18.4019ZM60.9573 20.6077L61.9171 21.6029L60.9573 22.6286L59.9668 21.6029L60.9573 20.6077ZM62.0679 21.6029L63.0584 20.6077L64.0182 21.6029L63.0584 22.6286L62.0679 21.6029ZM65.3962 5.15918C65.8444 5.88245 66.2072 6.6544 66.4776 7.45982C66.7498 8.24235 66.9135 9.05798 66.9639 9.88426H62.9352L62.1538 7.70902L65.3962 5.15918Z" fill="white"/>
<path d="M67.9297 5.64148C67.719 4.56967 67.5028 3.84941 67.2812 3.48071L71.3635 0C71.8069 0.935083 72.1273 1.92281 72.3167 2.93891C72.5509 4.14157 72.6564 5.3654 72.6312 6.59003L72.5713 9.88424H68.4291L68.3399 8.60932C68.2662 7.61248 68.1292 6.62123 67.9297 5.64148ZM72.5664 10.754L72.3864 16.9711L70.8852 19.7042H68.849L68.4599 10.7508L72.5664 10.754Z" fill="white"/>
<path d="M4.01992 13.2832C3.48304 13.2748 2.95056 13.3804 2.45817 13.5928C1.96579 13.8052 1.52487 14.1195 1.16497 14.5147C0.390772 15.3284 -0.0281474 16.4123 -0.000683135 17.5308V28.5452H1.48921L4.7138 24.5066V15.0211H7.94325V13.2832H4.01992Z" fill="white"/>
<path d="M6.85702 45.0936C6.9819 44.8333 7.08021 44.5613 7.15046 44.2817C7.23801 44.0212 7.32555 43.7608 7.40337 43.4971H4.71378V33.9473L1.53783 30.0132H-0.000698861V40.9746C-0.0279866 42.093 0.390908 43.1769 1.16495 43.9907C1.52479 44.3859 1.96569 44.7003 2.4581 44.9127C2.9505 45.1251 3.483 45.2306 4.0199 45.2222H6.80839C6.81719 45.1769 6.83363 45.1334 6.85702 45.0936Z" fill="white"/>
<path d="M74.2829 24.5066V15.013H71.0566V13.2831H74.9784C75.5149 13.2752 76.047 13.381 76.5391 13.5934C77.0312 13.8058 77.4718 14.1198 77.8317 14.5146C78.6057 15.3286 79.0251 16.4122 78.999 17.5307V28.5452H77.5091L74.2829 24.5066ZM71.0566 43.4921H74.2829V33.9471L77.4604 30.013H78.999V40.9744C79.0256 42.093 78.6062 43.1769 77.8317 43.9905C77.4722 44.3859 77.0316 44.7004 76.5395 44.9131C76.0474 45.1257 75.5151 45.2316 74.9784 45.2236H71.0566V43.4921Z" fill="white"/>
</g>
<defs>
<clipPath id="clip0_1337_12216">
<rect width="79" height="50" fill="white"/>
</clipPath>
</defs>
</svg>