<svg width="24" height="32" viewBox="0 0 24 32" fill="none" xmlns="http://www.w3.org/2000/svg">
    <path fill-rule="evenodd" clip-rule="evenodd" d="M10.3627 0.0894196C7.52525 0.409014 5.15968 1.53788 3.20196 3.50647C1.61618 5.10113 0.671941 6.94466 0.228894 9.31107C-0.355899 12.4346 0.701482 15.0488 3.29949 16.9022C4.15153 17.5101 5.37781 18.1061 6.39568 18.407L6.78767 18.5229V18.9081C6.78767 20.2946 7.85515 21.2622 9.29311 21.1792C9.62339 21.1601 9.86304 21.1083 10.0356 21.0186L10.2905 20.8862L10.6245 21.0631C11.3579 21.4516 12.1749 21.4781 12.9059 21.1371L13.329 20.9397L13.667 21.0658C14.297 21.3008 15.1572 21.1903 15.7773 20.7948C16.3998 20.3979 16.6986 19.8918 16.7562 19.1367L16.7914 18.676L17.6103 18.4133C19.3043 17.8699 20.7326 17.0391 21.8101 15.9706C23.9884 13.8102 24.5024 11.1129 23.3818 7.72279C22.5944 5.34099 20.9775 3.316 18.6729 1.8254C16.4552 0.390942 13.3831 -0.25081 10.3627 0.0894196ZM7.55291 6.31741C8.59875 6.53883 9.60545 7.51862 9.98704 8.68664C10.1179 9.08721 10.1402 9.27655 10.1416 9.9989C10.1429 10.6982 10.1194 10.9182 10.0048 11.2808C9.59429 12.5799 8.48278 13.6046 7.33647 13.7407C6.39079 13.8529 5.60366 13.603 4.92228 12.974C4.40899 12.5002 4.0673 11.9776 3.86258 11.3531C3.71708 10.9093 3.69506 10.7376 3.69299 10.0302C3.69023 9.10384 3.77302 8.73503 4.14093 8.03456C4.41144 7.51944 5.05155 6.85161 5.50852 6.60768C6.13408 6.2737 6.85968 6.17065 7.55291 6.31741ZM17.8385 6.43047C18.7777 6.7872 19.6372 7.83047 19.9264 8.96465C20.0491 9.44601 20.0482 10.534 19.9247 11.0564C19.6609 12.1724 18.8146 13.2175 17.8889 13.5705C16.8373 13.9715 15.6413 13.7598 14.8249 13.028C14.4051 12.6517 13.9594 11.9734 13.7665 11.4172C13.5586 10.8175 13.5046 9.74046 13.6484 9.06094C13.9163 7.79557 14.9125 6.64801 16.0074 6.34336C16.4879 6.20967 17.3672 6.2515 17.8385 6.43047ZM12.2002 14.1479C12.8676 14.4259 13.4531 15.848 13.1419 16.4352C12.9659 16.7674 12.6289 16.9084 12.0203 16.9045C11.4415 16.9009 10.9991 16.7287 10.7736 16.4194C10.5766 16.1492 10.5958 15.5712 10.8168 15.122C11.024 14.7006 11.4934 14.21 11.7641 14.1318C11.8729 14.1004 11.97 14.0721 11.9797 14.069C11.9894 14.066 12.0886 14.1014 12.2002 14.1479ZM2.01632 18.9718C1.68097 19.0787 1.29336 19.4296 1.15858 19.7483C1.03697 20.0358 1.04016 20.5346 1.16535 20.8242C1.21923 20.9486 1.3606 21.1777 1.47957 21.3331L1.69589 21.6156L1.31124 21.6911C0.670498 21.8168 0.239869 22.111 0.0744792 22.5363C-0.0422409 22.8365 -0.0184077 23.4461 0.122397 23.7602C0.381865 24.3391 0.79117 24.6001 1.4252 24.5911C1.97825 24.5832 2.29724 24.4961 2.93961 24.1776L3.45058 23.9243L5.59307 24.6953C6.79307 25.1271 7.69955 25.4852 7.65364 25.5092C7.60854 25.5328 6.65057 25.8809 5.52476 26.2829L3.4778 27.0137L3.09064 26.7642C2.71075 26.5194 2.15173 26.3046 1.69777 26.229C0.834509 26.0854 0.01452 26.7864 0.00185075 27.6789C-0.00103432 27.8814 0.0292588 28.1457 0.0692108 28.2664C0.212587 28.6994 0.769908 29.0712 1.41152 29.1617L1.71138 29.2041L1.52962 29.4344C1.07911 30.0053 0.935047 30.673 1.16623 31.1186C1.41177 31.5921 1.92808 31.9263 2.50704 31.9867C2.80376 32.0176 2.92299 31.9991 3.16759 31.8845C3.69249 31.6385 4.21105 30.8976 4.40912 30.1105C4.47717 29.8401 4.5148 29.7935 4.74303 29.6967C4.88447 29.6367 6.57361 29.0171 8.49677 28.3198L11.9934 27.0518L15.4899 28.3198C17.4131 29.0171 19.0994 29.6357 19.2374 29.6946C19.4725 29.7947 19.4974 29.831 19.6331 30.2723C19.797 30.8054 20.1969 31.4495 20.5231 31.7059C20.8082 31.93 21.2313 32.0399 21.598 31.9851C21.9836 31.9275 22.5033 31.6022 22.7426 31.2688C22.9142 31.0298 22.9378 30.9465 22.9378 30.581C22.9378 30.1141 22.8361 29.8558 22.4965 29.4603L22.2827 29.2113L22.5476 29.1705C23.5419 29.0175 23.9893 28.5654 23.9844 27.7185C23.98 26.9691 23.516 26.3829 22.8062 26.2304C22.355 26.1334 21.4947 26.4042 20.705 26.8918L20.4791 27.0313L18.3647 26.2561C16.9607 25.7413 16.2886 25.467 16.3641 25.4395C16.4266 25.4167 17.3915 25.0668 18.5082 24.6618L20.5385 23.9255L21.0483 24.1782C22.4051 24.8509 23.357 24.7444 23.8055 23.87C24.1304 23.2368 24.0414 22.5068 23.5896 22.0999C23.3005 21.8395 23.141 21.7692 22.635 21.6794L22.2694 21.6145L22.457 21.4188C22.7315 21.1326 22.9256 20.7168 22.9542 20.3539C23.0399 19.2636 21.6792 18.51 20.6794 19.0941C20.2193 19.363 19.9279 19.8062 19.6501 20.6597L19.4875 21.1592L15.7405 22.5486L11.9935 23.9379L8.24596 22.5794L4.49843 21.221L4.4142 20.9407C4.22855 20.3231 4.00276 19.8163 3.78588 19.5304C3.37563 18.9894 2.66478 18.7651 2.01632 18.9718Z" fill="#8689B0"/>
</svg>